<svg xmlns="http://www.w3.org/2000/svg" xmlns:xlink="http://www.w3.org/1999/xlink" width="176.232" height="94.482" viewBox="0 0 176.232 94.482">
  <defs>
    <clipPath id="clip-path">
      <path id="Path_51314" data-name="Path 51314" d="M160.95,6335.192a5.968,5.968,0,0,1-3.452-2.809,3.5,3.5,0,0,1-.086-2.787c.866-2.352,3.492-3.469,5.853-3.469a7.172,7.172,0,0,1,.918.059,6.64,6.64,0,0,1,5.278,3.65,8.226,8.226,0,0,1,.388,6.068l-.674.021c-.828.026-1.663.052-2.5.052a17.177,17.177,0,0,1-5.728-.785m-9.644,8.319a15.3,15.3,0,0,1-11.607-13.243,16.964,16.964,0,0,1,4.1-12.911,26.674,26.674,0,0,1,18.089-8.937c.67-.048,1.338-.072,2-.072a24.408,24.408,0,0,1,16.19,5.728c3.238,2.865,6.276,7.8,5.093,13.053-.878,3.893-4.046,6.9-8.474,8.04a26.9,26.9,0,0,1-5.812.7,8.781,8.781,0,0,0-.6-7.77,8.879,8.879,0,0,0-8.994-4.218,8.347,8.347,0,0,0-6.651,5.09,6.541,6.541,0,0,0,1.156,6.727c2.656,3.177,7.005,4.049,11.279,4.2a16.323,16.323,0,0,1-11.1,4.239,17.883,17.883,0,0,1-4.676-.628m9.059-39.733c-8.37.992-16.644,5.929-21.081,12.583a19.739,19.739,0,0,0-2.772,16.777,18.737,18.737,0,0,0,16.08,13.192,19.83,19.83,0,0,0,2.391.146,16.483,16.483,0,0,0,13.466-6.55c1.6.008,3.17-.071,4.6-.139l.382-.018c6.663-.315,14.964-3.854,16.426-12.8a16.8,16.8,0,0,0-4.695-14.792c-5.048-5.278-13.555-8.586-21.572-8.586a27.586,27.586,0,0,0-3.226.186" transform="translate(-135.73 -6303.593)" fill="none"/>
    </clipPath>
  </defs>
  <g id="Group_45226" data-name="Group 45226" transform="translate(-73.949 -6303.593)">
    <g id="Group_33214" data-name="Group 33214" transform="translate(86.799 6342.944)">
      <g id="Group_33213" data-name="Group 33213">
        <path id="Path_51308" data-name="Path 51308" d="M117.934,6369.8c0,9.045-6.8,15.212-14.116,15.212a14.713,14.713,0,0,1-9.507-3.111v2.247H86.706V6342.66h7.606V6357.7a14.426,14.426,0,0,1,9.507-3.17c7.318,0,14.116,6.224,14.116,15.27m-7.375,0c0-5.3-3.457-8.644-8.066-8.644a8.626,8.626,0,0,0,0,17.229c4.609,0,8.066-3.284,8.066-8.585" transform="translate(-86.706 -6342.66)" fill="#fff"/>
        <path id="Path_51309" data-name="Path 51309" d="M139.592,6355.131l-.4,7.316h-1.67c-7.03,0-10.256,4.322-10.256,12.332v9.277h-7.606V6355.3h7.606v5.244a12.085,12.085,0,0,1,10.313-5.646,5.886,5.886,0,0,1,2.017.23" transform="translate(-86.467 -6342.571)" fill="#fff"/>
        <path id="Path_51310" data-name="Path 51310" d="M170.578,6384.059h-7.6v-2.247a14.715,14.715,0,0,1-9.508,3.112c-7.317,0-14.116-6.167-14.116-15.212s6.8-15.27,14.116-15.27a14.435,14.435,0,0,1,9.508,3.169v-2.305h7.6Zm-7.6-14.347a8.356,8.356,0,0,0-8.182-8.643c-4.609,0-8.066,3.341-8.066,8.643s3.457,8.584,8.066,8.584a8.3,8.3,0,0,0,8.182-8.584" transform="translate(-86.324 -6342.574)" fill="#fff"/>
        <path id="Path_51311" data-name="Path 51311" d="M183.48,6347.432a4.613,4.613,0,0,1-9.219,0,4.61,4.61,0,0,1,9.219,0" transform="translate(-86.07 -6342.658)" fill="#fff"/>
        <rect id="Rectangle_1892" data-name="Rectangle 1892" width="7.605" height="28.751" transform="translate(88.998 12.733)" fill="#fff"/>
        <path id="Path_51312" data-name="Path 51312" d="M215.5,6366.543v17.516h-7.6v-15.9c0-4.035-2.306-6.74-5.82-6.74-4.321,0-7.146,2.88-7.146,9.91v12.733h-7.606v-28.752h7.606v2.595a12.249,12.249,0,0,1,9.046-3.459c6.914,0,11.524,4.956,11.524,12.1" transform="translate(-85.975 -6342.574)" fill="#fff"/>
      </g>
    </g>
    <g id="Group_33221" data-name="Group 33221" transform="translate(136.179 6303.593)">
      <g id="Group_33215" data-name="Group 33215">
        <path id="Path_51313" data-name="Path 51313" d="M160.951,6335.192a5.964,5.964,0,0,1-3.453-2.81,3.5,3.5,0,0,1-.086-2.786c.866-2.352,3.493-3.471,5.852-3.471a7.017,7.017,0,0,1,.92.06,6.646,6.646,0,0,1,5.278,3.65,8.219,8.219,0,0,1,.386,6.067l-.673.021c-.827.027-1.664.054-2.5.054a17.163,17.163,0,0,1-5.727-.786m-9.645,8.32a15.31,15.31,0,0,1-11.608-13.246,16.959,16.959,0,0,1,4.1-12.906,26.672,26.672,0,0,1,18.09-8.939q1-.071,2-.072a24.411,24.411,0,0,1,16.191,5.728c3.237,2.865,6.274,7.8,5.091,13.053-.876,3.893-4.044,6.9-8.472,8.04a26.8,26.8,0,0,1-5.813.7,8.78,8.78,0,0,0-.6-7.77,8.879,8.879,0,0,0-8.994-4.217,8.345,8.345,0,0,0-6.652,5.089,6.54,6.54,0,0,0,1.158,6.726c2.654,3.179,7,4.05,11.278,4.2a16.322,16.322,0,0,1-11.1,4.24,17.9,17.9,0,0,1-4.676-.628m9.059-39.734c-8.37.991-16.645,5.93-21.08,12.583a19.734,19.734,0,0,0-2.773,16.778,18.739,18.739,0,0,0,16.079,13.191,19.879,19.879,0,0,0,2.391.146,16.484,16.484,0,0,0,13.467-6.55c1.6.008,3.17-.069,4.6-.139l.382-.019c6.664-.314,14.965-3.854,16.427-12.8a16.8,16.8,0,0,0-4.694-14.79c-5.049-5.278-13.555-8.585-21.572-8.586a27.6,27.6,0,0,0-3.227.186" transform="translate(-135.73 -6303.593)" fill="#ff7c00"/>
      </g>
      <g id="Group_33217" data-name="Group 33217" transform="translate(0)">
        <g id="Group_33216" data-name="Group 33216" clip-path="url(#clip-path)">
          <rect id="Rectangle_1893" data-name="Rectangle 1893" width="55.895" height="42.883" transform="translate(-0.862 0)" fill="#ff7c00"/>
        </g>
      </g>
      <g id="Group_33218" data-name="Group 33218">
        <path id="Path_51315" data-name="Path 51315" d="M160.951,6335.192a5.964,5.964,0,0,1-3.453-2.81,3.5,3.5,0,0,1-.086-2.786c.866-2.352,3.493-3.471,5.852-3.471a7.017,7.017,0,0,1,.92.06,6.646,6.646,0,0,1,5.278,3.65,8.219,8.219,0,0,1,.386,6.067l-.673.021c-.827.027-1.664.054-2.5.054a17.163,17.163,0,0,1-5.727-.786m-9.645,8.32a15.31,15.31,0,0,1-11.608-13.246,16.959,16.959,0,0,1,4.1-12.906,26.672,26.672,0,0,1,18.09-8.939q1-.071,2-.072a24.411,24.411,0,0,1,16.191,5.728c3.237,2.865,6.274,7.8,5.091,13.053-.876,3.893-4.044,6.9-8.472,8.04a26.8,26.8,0,0,1-5.813.7,8.78,8.78,0,0,0-.6-7.77,8.879,8.879,0,0,0-8.994-4.217,8.345,8.345,0,0,0-6.652,5.089,6.54,6.54,0,0,0,1.158,6.726c2.654,3.179,7,4.05,11.278,4.2a16.322,16.322,0,0,1-11.1,4.24,17.9,17.9,0,0,1-4.676-.628m9.059-39.734c-8.37.991-16.645,5.93-21.08,12.583a19.734,19.734,0,0,0-2.773,16.778,18.739,18.739,0,0,0,16.079,13.191,19.879,19.879,0,0,0,2.391.146,16.484,16.484,0,0,0,13.467-6.55c1.6.008,3.17-.069,4.6-.139l.382-.019c6.664-.314,14.965-3.854,16.427-12.8a16.8,16.8,0,0,0-4.694-14.79c-5.049-5.278-13.555-8.585-21.572-8.586a27.6,27.6,0,0,0-3.227.186" transform="translate(-135.73 -6303.593)" fill="#ff7c00"/>
      </g>
      <g id="Group_33220" data-name="Group 33220" transform="translate(0)">
        <g id="Group_33219" data-name="Group 33219" clip-path="url(#clip-path)">
          <rect id="Rectangle_1894" data-name="Rectangle 1894" width="55.895" height="42.883" transform="translate(-0.862 0)" fill="#ff7c00"/>
        </g>
      </g>
    </g>
    <g id="Group_33226" data-name="Group 33226" transform="translate(215.552 6343.413)">
      <g id="Group_33222" data-name="Group 33222" transform="translate(0 0.004)">
        <path id="Path_51317" data-name="Path 51317" d="M225.534,6349.849a7.428,7.428,0,0,1-.682,3.256,5.053,5.053,0,0,1-1.939,2.181,5.4,5.4,0,0,1-2.864.765,5.475,5.475,0,0,1-2.85-.74,5.019,5.019,0,0,1-1.939-2.112,7.191,7.191,0,0,1-.73-3.152v-.708a7.448,7.448,0,0,1,.678-3.26,5.038,5.038,0,0,1,1.943-2.181,5.754,5.754,0,0,1,5.731-.009,5.13,5.13,0,0,1,1.947,2.164,7.21,7.21,0,0,1,.7,3.218Zm-3.083-.527a5.277,5.277,0,0,0-.626-2.845,2.008,2.008,0,0,0-1.792-.973q-2.28,0-2.409,3.42l-.009.925a5.437,5.437,0,0,0,.613,2.841,2.006,2.006,0,0,0,1.822.993,1.979,1.979,0,0,0,1.771-.976,5.288,5.288,0,0,0,.631-2.806Z" transform="translate(-214.531 -6343.129)" fill="#ff7c00"/>
        <path id="Path_51318" data-name="Path 51318" d="M233.5,6352.535a1.242,1.242,0,0,0-.471-1.036,5.811,5.811,0,0,0-1.654-.769,15.788,15.788,0,0,1-1.934-.77q-2.445-1.2-2.445-3.3a2.957,2.957,0,0,1,.609-1.845,3.948,3.948,0,0,1,1.722-1.244,6.7,6.7,0,0,1,2.505-.445,5.864,5.864,0,0,1,2.432.484,3.853,3.853,0,0,1,1.671,1.377,3.6,3.6,0,0,1,.6,2.042H233.5a1.519,1.519,0,0,0-.47-1.192,1.837,1.837,0,0,0-1.274-.423,2.072,2.072,0,0,0-1.282.358,1.057,1.057,0,0,0,.047,1.789,6.558,6.558,0,0,0,1.822.812,11.2,11.2,0,0,1,2.142.9,3.6,3.6,0,0,1,2.038,3.24,3.07,3.07,0,0,1-1.243,2.59,5.533,5.533,0,0,1-3.412.942,6.765,6.765,0,0,1-2.768-.549,4.171,4.171,0,0,1-1.866-1.5,3.915,3.915,0,0,1-.626-2.2h3.04a1.925,1.925,0,0,0,.523,1.49,2.466,2.466,0,0,0,1.7.48,1.953,1.953,0,0,0,1.188-.324A1.071,1.071,0,0,0,233.5,6352.535Z" transform="translate(-214.443 -6343.129)" fill="#ff7c00"/>
      </g>
      <g id="Artwork_1" data-name="Artwork 1" transform="translate(23.27)">
        <g id="Group_33225" data-name="Group 33225">
          <g id="Group_33223" data-name="Group 33223">
            <path id="Path_51319" data-name="Path 51319" d="M240.165,6345.792c-.006-.054-.008-.151-.008-.284a.836.836,0,0,0-.06-.339.432.432,0,0,0-.21-.212.47.47,0,0,0,.277-.427.577.577,0,0,0-.214-.479.929.929,0,0,0-.586-.168h-.691v2.09h.372v-.83h.389a.3.3,0,0,1,.351.352,1.936,1.936,0,0,0,.033.478h.381v-.04a.489.489,0,0,1-.033-.14m-.487-1.056a.537.537,0,0,1-.3.077h-.334v-.6h.346a.525.525,0,0,1,.316.076.3.3,0,0,1,.088.245.243.243,0,0,1-.117.207" transform="translate(-237.625 -6343.12)" fill="#ff7c00"/>
            <path id="Path_51320" data-name="Path 51320" d="M239.378,6343.438a1.474,1.474,0,1,1-1.433,1.474,1.454,1.454,0,0,1,1.433-1.474m0-.313a1.787,1.787,0,1,0,1.746,1.787,1.766,1.766,0,0,0-1.746-1.787" transform="translate(-237.633 -6343.125)" fill="#ff7c00"/>
          </g>
          <g id="Group_33224" data-name="Group 33224">
            <path id="Path_51321" data-name="Path 51321" d="M240.165,6345.792c-.006-.054-.008-.151-.008-.284a.836.836,0,0,0-.06-.339.432.432,0,0,0-.21-.212.47.47,0,0,0,.277-.427.577.577,0,0,0-.214-.479.929.929,0,0,0-.586-.168h-.691v2.09h.372v-.83h.389a.3.3,0,0,1,.351.352,1.936,1.936,0,0,0,.033.478h.381v-.04a.489.489,0,0,1-.033-.14m-.487-1.056a.537.537,0,0,1-.3.077h-.334v-.6h.346a.525.525,0,0,1,.316.076.3.3,0,0,1,.088.245.243.243,0,0,1-.117.207" transform="translate(-237.625 -6343.12)" fill="#ff7c00"/>
            <path id="Path_51322" data-name="Path 51322" d="M239.378,6343.438a1.474,1.474,0,1,1-1.433,1.474,1.454,1.454,0,0,1,1.433-1.474m0-.313a1.787,1.787,0,1,0,1.746,1.787,1.766,1.766,0,0,0-1.746-1.787" transform="translate(-237.633 -6343.125)" fill="#ff7c00"/>
          </g>
        </g>
      </g>
    </g>
    <g id="Group_33227" data-name="Group 33227" transform="translate(139.688 6391.051)">
      <path id="Path_51323" data-name="Path 51323" d="M140.862,6395.032v2.318h-1.648v-6.836h2.728a3.2,3.2,0,0,1,1.388.288,2.18,2.18,0,0,1,.934.823,2.244,2.244,0,0,1,.331,1.208,1.976,1.976,0,0,1-.716,1.6,2.97,2.97,0,0,1-1.965.6Zm0-1.273h1.08a1.023,1.023,0,0,0,.73-.239.892.892,0,0,0,.252-.677,1.1,1.1,0,0,0-.259-.764.912.912,0,0,0-.7-.292h-1.1Z" transform="translate(-139.214 -6390.42)" fill="#ff7c00"/>
      <path id="Path_51324" data-name="Path 51324" d="M151.218,6394.074a4.036,4.036,0,0,1-.371,1.77,2.741,2.741,0,0,1-1.055,1.186,2.939,2.939,0,0,1-1.556.415,2.975,2.975,0,0,1-1.549-.4,2.732,2.732,0,0,1-1.055-1.148,3.917,3.917,0,0,1-.4-1.713v-.386a4.046,4.046,0,0,1,.369-1.771,2.73,2.73,0,0,1,1.057-1.186,3.128,3.128,0,0,1,3.115,0,2.784,2.784,0,0,1,1.059,1.176,3.934,3.934,0,0,1,.383,1.749Zm-1.676-.287a2.877,2.877,0,0,0-.34-1.547,1.092,1.092,0,0,0-.974-.528q-1.24,0-1.31,1.859l-.005.5a2.967,2.967,0,0,0,.333,1.545,1.092,1.092,0,0,0,.991.539,1.079,1.079,0,0,0,.963-.531,2.889,2.889,0,0,0,.342-1.524Z" transform="translate(-139.17 -6390.421)" fill="#ff7c00"/>
      <path id="Path_51325" data-name="Path 51325" d="M157.317,6394.8l.785-4.287h1.634l-1.45,6.836h-1.709l-.916-3.9-.9,3.9h-1.7l-1.455-6.836h1.639l.784,4.287.939-4.287h1.4Z" transform="translate(-139.124 -6390.42)" fill="#ff7c00"/>
      <path id="Path_51326" data-name="Path 51326" d="M164.556,6394.448h-2.592v1.634h3.061v1.269h-4.709v-6.836h4.718v1.272h-3.07v1.441h2.592Z" transform="translate(-139.061 -6390.42)" fill="#ff7c00"/>
      <path id="Path_51327" data-name="Path 51327" d="M168.2,6394.932H167.3v2.418h-1.648v-6.836h2.69a3,3,0,0,1,1.9.539,1.829,1.829,0,0,1,.686,1.525,2.223,2.223,0,0,1-.289,1.182,2.057,2.057,0,0,1-.9.761l1.427,2.759v.07H169.4Zm-.892-1.268h1.043a.937.937,0,0,0,.707-.247,1.124,1.124,0,0,0,0-1.384.923.923,0,0,0-.7-.251H167.3Z" transform="translate(-139.022 -6390.42)" fill="#ff7c00"/>
      <path id="Path_51328" data-name="Path 51328" d="M176.125,6394.448h-2.592v1.634h3.061v1.269h-4.709v-6.836H176.6v1.272h-3.07v1.441h2.592Z" transform="translate(-138.977 -6390.42)" fill="#ff7c00"/>
      <path id="Path_51329" data-name="Path 51329" d="M177.227,6397.35v-6.836h2.2a3.232,3.232,0,0,1,1.629.411,2.879,2.879,0,0,1,1.129,1.161,3.49,3.49,0,0,1,.411,1.678v.314a3.512,3.512,0,0,1-.4,1.683,2.892,2.892,0,0,1-1.117,1.165,3.155,3.155,0,0,1-1.609.425Zm1.648-5.563v4.295h.572a1.282,1.282,0,0,0,1.09-.5,2.482,2.482,0,0,0,.38-1.5v-.3a2.467,2.467,0,0,0-.38-1.495,1.308,1.308,0,0,0-1.108-.5Z" transform="translate(-138.938 -6390.42)" fill="#ff7c00"/>
    </g>
    <g id="Group_33228" data-name="Group 33228" transform="translate(188.238 6331.837)">
      <path id="Path_51330" data-name="Path 51330" d="M239.11,6395.85h-51.7v-2.932h51.7a7.323,7.323,0,0,0,7.316-7.315v-43.722a7.325,7.325,0,0,0-7.316-7.317H191.847l1.372-2.93H239.11a10.258,10.258,0,0,1,10.247,10.247V6385.6A10.258,10.258,0,0,1,239.11,6395.85Z" transform="translate(-187.414 -6331.634)" fill="#fff"/>
    </g>
    <g id="Group_33229" data-name="Group 33229" transform="translate(73.949 6331.837)">
      <path id="Path_51331" data-name="Path 51331" d="M135.006,6395.85H84.2A10.258,10.258,0,0,1,73.949,6385.6v-43.722A10.258,10.258,0,0,1,84.2,6331.634h47.272l.948,2.93H84.2a7.325,7.325,0,0,0-7.316,7.317V6385.6a7.323,7.323,0,0,0,7.316,7.315h50.81Z" transform="translate(-73.949 -6331.634)" fill="#fff"/>
    </g>
  </g>
</svg>
