<svg xmlns="http://www.w3.org/2000/svg" xmlns:xlink="http://www.w3.org/1999/xlink" viewBox="0 0 736.9 293.4"><defs><style>.e273a755-8257-4823-a9c3-cf5872a91ab0{fill:none;}.f49eb4ce-abf7-4ec9-b213-28c71fc88bf0{clip-path:url(#f9d46e8b-8e04-4cfb-8531-49e8b588d87d);}.b898fb90-92ea-419a-b3ea-a4e44e6ebb0f{fill:#ff7c00;}.a5129595-ebf8-4a97-8975-a1f205b4159e{clip-path:url(#bdfff195-f745-4969-b9c9-81d947e95632);}.ac4dfdb5-dc66-4c32-9ed6-47cc5e6a815f{fill:#5a5b5b;}</style><clipPath id="f9d46e8b-8e04-4cfb-8531-49e8b588d87d" transform="translate(0 0)"><rect class="e273a755-8257-4823-a9c3-cf5872a91ab0" width="736.9" height="293.37"/></clipPath><clipPath id="bdfff195-f745-4969-b9c9-81d947e95632" transform="translate(0 0)"><rect class="e273a755-8257-4823-a9c3-cf5872a91ab0" width="736.9" height="293.37"/></clipPath></defs><g id="b55b1fed-df8b-434d-8e6f-765e8dd042b8" data-name="Layer 2"><g id="b40bef89-8338-4260-ac7e-ce69ed910465" data-name="Layer 7"><g id="fb9a2bd5-eca5-40ac-ba2b-c5b8f0c77dbe" data-name="BrainCorp-logo-4C"><g class="f49eb4ce-abf7-4ec9-b213-28c71fc88bf0"><polyline class="b898fb90-92ea-419a-b3ea-a4e44e6ebb0f" points="393.7 207.7 219.4 207.7 219.4 188.4 393.7 188.4"/><g class="a5129595-ebf8-4a97-8975-a1f205b4159e"><path class="b898fb90-92ea-419a-b3ea-a4e44e6ebb0f" d="M633.8,130.9c-5.6-2-10.2-5.7-12.2-9.9a12.6,12.6,0,0,1-.3-9.9c3.1-8.3,12.4-12.3,20.7-12.3a18.4,18.4,0,0,1,3.3.3c8.4,1.1,15,5.6,18.6,12.9a29.2,29.2,0,0,1,1.4,21.4h-2.4l-8.8.2c-7,0-13.9-.5-20.3-2.8m-34.1,29.4c-22.9-6.2-38.6-24.1-41-46.8-1.8-16.4,3.2-32.2,14.5-45.7,14.9-17.7,39.4-29.8,64-31.6l7-.2c22,0,42.5,7.2,57.3,20.2,11.4,10.2,22.2,27.6,18,46.2-3.1,13.8-14.3,24.4-30,28.4a90.5,90.5,0,0,1-20.5,2.5,31.1,31.1,0,0,0-2.2-27.5c-6.4-10.9-18.6-16.6-31.8-14.9-10.5,1.4-19.8,8.5-23.5,18a23.1,23.1,0,0,0,4.1,23.8c9.4,11.2,24.8,14.3,39.9,14.9a57.8,57.8,0,0,1-39.2,15,63.3,63.3,0,0,1-16.6-2.3M631.8,19.8c-29.6,3.5-58.9,21-74.6,44.5-12.2,18.4-15.6,38.9-9.8,59.4,7.1,25,29.4,43.3,56.9,46.6a78.9,78.9,0,0,0,8.4.5c19.4,0,36.4-8.3,47.6-23.2,5.7.1,11.3-.2,16.3-.4H678c23.5-1.1,52.9-13.6,58-45.3,3.2-19.5-2.5-37.6-16.6-52.3-17.8-18.6-47.9-30.3-76.2-30.3a106,106,0,0,0-11.4.6" transform="translate(0 0)"/><path class="b898fb90-92ea-419a-b3ea-a4e44e6ebb0f" d="M732.4,31.7V30.4a3.8,3.8,0,0,0-.3-1.6,2.4,2.4,0,0,0-1-1,2.1,2.1,0,0,0,1.3-2,2.8,2.8,0,0,0-1-2.3,4.5,4.5,0,0,0-2.7-.7h-3.3v9.8h1.8V28.7H729a1.7,1.7,0,0,1,1.3.4,1.9,1.9,0,0,1,.3,1.2,8.6,8.6,0,0,0,.2,2.3h1.8v-.2a6.4,6.4,0,0,1-.2-.7m-2.3-4.9a2.6,2.6,0,0,1-1.4.3h-1.5V24.3h1.6a2.8,2.8,0,0,1,1.5.3,1.6,1.6,0,0,1,.4,1.2,1.2,1.2,0,0,1-.6,1" transform="translate(0 0)"/><path class="b898fb90-92ea-419a-b3ea-a4e44e6ebb0f" d="M728.7,20.6a7,7,0,1,1-6.8,7,6.9,6.9,0,0,1,6.8-7m0-1.4a8.4,8.4,0,1,0,8.2,8.4,8.3,8.3,0,0,0-8.2-8.4" transform="translate(0 0)"/><path class="ac4dfdb5-dc66-4c32-9ed6-47cc5e6a815f" d="M127.3,110.6c0,36.8-27.7,62-57.6,62-15.9,0-28.8-4.7-38.7-12.7v9.2H0V0H31V61.3c9.9-8.2,22.8-12.9,38.7-12.9,29.9,0,57.6,25.3,57.6,62.2m-30.1,0c0-21.6-14.1-35.2-32.9-35.2C47.7,75.4,31,89,31,110.6s16.7,35,33.3,35c18.8,0,32.9-13.4,32.9-35" transform="translate(0 0)"/><path class="ac4dfdb5-dc66-4c32-9ed6-47cc5e6a815f" d="M216.5,51.2,214.8,81H208c-28.6,0-41.8,17.6-41.8,50.3v37.8H135.3V51.9h30.9V73.3c9.4-13.7,23.1-23.1,42.1-23.1,3,0,5.4,0,8.2,1" transform="translate(0 0)"/><path class="ac4dfdb5-dc66-4c32-9ed6-47cc5e6a815f" d="M343.4,169.1h-31v-9.2c-9.9,8-22.8,12.7-38.8,12.7-29.8,0-57.5-25.2-57.5-62s27.7-62.2,57.5-62.2c16,0,28.9,4.7,38.8,12.9V51.9h31Zm-31-58.5c0-21.6-16.7-35.2-33.4-35.2-18.8,0-32.9,13.6-32.9,35.2s14.1,35,32.9,35c16.7,0,33.4-13.4,33.4-35" transform="translate(0 0)"/><path class="ac4dfdb5-dc66-4c32-9ed6-47cc5e6a815f" d="M397,19.5c0,10.3-8,18-18.8,18s-18.8-7.7-18.8-18A18.5,18.5,0,0,1,378.2.9,18.7,18.7,0,0,1,397,19.5" transform="translate(0 0)"/><rect class="ac4dfdb5-dc66-4c32-9ed6-47cc5e6a815f" x="362.7" y="51.9" width="31" height="117.16"/><path class="ac4dfdb5-dc66-4c32-9ed6-47cc5e6a815f" d="M527.8,97.7v71.4h-31V104.3c0-16.5-9.4-27.5-23.7-27.5-17.6,0-29.1,11.7-29.1,40.4v51.9H413V51.9h31V62.5c9.1-9.2,21.3-14.1,36.8-14.1,28.2,0,47,20.2,47,49.3" transform="translate(0 0)"/><path class="ac4dfdb5-dc66-4c32-9ed6-47cc5e6a815f" d="M581.8,227.4c0,23.9-18.4,41-41.4,41s-41.4-17.1-41.4-41,18.2-40.7,41.4-40.7,41.4,16.8,41.4,40.7m-11.9,0c0-17.9-13.5-30.1-29.5-30.1s-29.7,12.2-29.7,30.1,13.6,30.4,29.7,30.4,29.5-12.4,29.5-30.4" transform="translate(0 0)"/><path class="ac4dfdb5-dc66-4c32-9ed6-47cc5e6a815f" d="M645.1,188.3v11.5h-5.6c-20.7,0-31.3,15.6-31.3,36.7v30.1H596V188.4h12.2v19.2c6.3-11.6,16.9-20,31.3-20a16.2,16.2,0,0,1,5.6.7" transform="translate(0 0)"/><path class="ac4dfdb5-dc66-4c32-9ed6-47cc5e6a815f" d="M736.9,227.5c0,24.7-18.2,41-39,41-12.9,0-24-5.2-31-14.4v39.3h-12v-105h12v12.5c7-9.2,18.1-14.4,31-14.4,20.8,0,39,16.3,39,41m-11.7,0c0-18.7-13-30.4-29.2-30.4-14.7,0-29.1,11.7-29.1,30.4s14.4,30.3,29.1,30.3c16.2,0,29.2-11.8,29.2-30.3" transform="translate(0 0)"/><path class="ac4dfdb5-dc66-4c32-9ed6-47cc5e6a815f" d="M477.8,242.6c-4.5,9.8-14,14.7-24.6,14.7-16,0-28.9-11.6-28.9-29.8s12.9-29.9,28.9-29.9c10.3,0,19.7,5.1,24.1,14.7h12.9c-4.8-15.9-19.9-25.8-37-25.8-22,0-40.7,16.5-40.7,41s18.7,41,40.7,41c17.3,0,32.6-9.8,36.9-25.8H477.8Z" transform="translate(0 0)"/></g></g></g></g></g></svg>