<svg xmlns="http://www.w3.org/2000/svg" xmlns:xlink="http://www.w3.org/1999/xlink" width="1920" height="421" viewBox="0 0 1920 421">
  <defs>
    <linearGradient id="linear-gradient" x1="0.475" y1="0.472" x2="1.379" y2="1.492" gradientUnits="objectBoundingBox">
      <stop offset="0" stop-color="#0038b5"/>
      <stop offset="1" stop-color="#1faeff"/>
    </linearGradient>
    <clipPath id="clip-path">
      <rect id="Rectangle_4299" data-name="Rectangle 4299" width="1920" height="421" transform="translate(0 92)" fill="#fff"/>
    </clipPath>
    <linearGradient id="linear-gradient-2" x1="0.731" y1="-0.014" x2="-0.131" y2="1.424" gradientUnits="objectBoundingBox">
      <stop offset="0" stop-color="#fff" stop-opacity="0"/>
      <stop offset="0.998" stop-color="#fff"/>
    </linearGradient>
    <linearGradient id="linear-gradient-3" x1="0.211" y1="0.421" x2="1.62" y2="1.458" xlink:href="#linear-gradient-2"/>
    <linearGradient id="linear-gradient-4" x1="0.632" y1="0.836" x2="-0.511" y2="-0.614" xlink:href="#linear-gradient-2"/>
    <linearGradient id="linear-gradient-5" x1="0.275" y1="1.01" x2="1.173" y2="-0.902" xlink:href="#linear-gradient-2"/>
    <linearGradient id="linear-gradient-6" x1="0.416" y1="0.433" x2="1.058" y2="0.964" xlink:href="#linear-gradient-2"/>
    <linearGradient id="linear-gradient-7" x1="0.774" y1="0.216" x2="-0.697" y2="1.718" xlink:href="#linear-gradient-2"/>
    <linearGradient id="linear-gradient-8" x1="0.379" y1="0.374" x2="1.79" y2="1.809" gradientUnits="objectBoundingBox">
      <stop offset="0" stop-color="#fff" stop-opacity="0"/>
      <stop offset="0.146" stop-color="#fff" stop-opacity="0.224"/>
      <stop offset="0.317" stop-color="#fff" stop-opacity="0.455"/>
      <stop offset="0.483" stop-color="#fff" stop-opacity="0.651"/>
      <stop offset="0.638" stop-color="#fff" stop-opacity="0.804"/>
      <stop offset="0.779" stop-color="#fff" stop-opacity="0.91"/>
      <stop offset="0.904" stop-color="#fff" stop-opacity="0.976"/>
      <stop offset="0.998" stop-color="#fff"/>
    </linearGradient>
    <linearGradient id="linear-gradient-9" x1="-0.422" y1="-0.256" x2="2.633" y2="2.91" xlink:href="#linear-gradient-2"/>
    <linearGradient id="linear-gradient-10" x1="0.319" y1="0.495" x2="1.171" y2="-0.165" gradientUnits="objectBoundingBox">
      <stop offset="0" stop-color="#fff" stop-opacity="0"/>
      <stop offset="0.109" stop-color="#fff" stop-opacity="0.02"/>
      <stop offset="0.233" stop-color="#fff" stop-opacity="0.071"/>
      <stop offset="0.364" stop-color="#fff" stop-opacity="0.161"/>
      <stop offset="0.499" stop-color="#fff" stop-opacity="0.286"/>
      <stop offset="0.638" stop-color="#fff" stop-opacity="0.443"/>
      <stop offset="0.78" stop-color="#fff" stop-opacity="0.639"/>
      <stop offset="0.922" stop-color="#fff" stop-opacity="0.867"/>
      <stop offset="0.998" stop-color="#fff"/>
    </linearGradient>
    <linearGradient id="linear-gradient-11" x1="0.344" y1="0.015" x2="1.523" y2="1.819" xlink:href="#linear-gradient-2"/>
    <linearGradient id="linear-gradient-12" x1="0.849" y1="0.804" x2="-3.267" y2="-2.82" xlink:href="#linear-gradient-2"/>
    <linearGradient id="linear-gradient-13" x1="0.553" y1="-0.064" x2="0.386" y2="1.044" gradientUnits="objectBoundingBox">
      <stop offset="0.229" stop-color="#fff" stop-opacity="0"/>
      <stop offset="0.998" stop-color="#fff"/>
    </linearGradient>
  </defs>
  <g id="Group_56104" data-name="Group 56104" transform="translate(13435 7719)">
    <rect id="Rectangle_4298" data-name="Rectangle 4298" width="1920" height="421" transform="translate(-13435 -7719)" fill="url(#linear-gradient)"/>
    <g id="Mask_Group_4" data-name="Mask Group 4" transform="translate(-13435 -7811)" clip-path="url(#clip-path)">
      <path id="Path_72287" data-name="Path 72287" d="M1951.762-642.368a32.219,32.219,0,0,0-4.888.366L1833.828-705.29l316.21-176.258-12.508,0L1821.315-705.29l117.8,65.944c-1.87,1.205-2.975,2.688-2.975,4.292,0,4.04,6.994,7.314,15.622,7.314s15.622-3.275,15.622-7.314S1960.39-642.368,1951.762-642.368Z" transform="translate(-84.277 1016.376)" opacity="0.54" fill="url(#linear-gradient-2)"/>
      <path id="Path_72288" data-name="Path 72288" d="M240.985-635.958l117.8-65.944L42.57-878.163l-12.508,0L346.272-701.9,233.226-638.613a32.228,32.228,0,0,0-4.888-.367c-8.628,0-15.622,3.275-15.622,7.315s6.994,7.314,15.622,7.314,15.622-3.275,15.622-7.314C243.96-633.27,242.855-634.752,240.985-635.958Z" transform="translate(-134.872 1009.033)" opacity="0.54" fill="url(#linear-gradient-3)"/>
      <path id="Path_72289" data-name="Path 72289" d="M1598.879-523.9l128.69-71.9-102.2-57a5.09,5.09,0,0,0,2.468-3.943c0-4.04-6.994-7.315-15.622-7.315s-15.622,3.275-15.622,7.315,6.994,7.314,15.622,7.314a31.7,31.7,0,0,0,5.757-.515l97.093,54.14-128.7,71.9L2059.3-257.637l6.257-3.5Z" transform="translate(-88.922 1048.742)" opacity="0.54" fill="url(#linear-gradient-4)"/>
      <path id="Path_72290" data-name="Path 72290" d="M1371.181-454.378l97.094-54.141a31.622,31.622,0,0,0,5.756.515c8.628,0,15.622-3.275,15.622-7.314s-6.994-7.315-15.622-7.315-15.622,3.275-15.622,7.315a5.09,5.09,0,0,0,2.468,3.943l-102.2,57,128.691,71.9L1349.649-303.19l6.257,3.5,143.971-82.781Z" transform="translate(-706.649 983.767)" opacity="0.54" fill="url(#linear-gradient-5)"/>
      <path id="Path_72291" data-name="Path 72291" d="M2059.729-976.053c-8.628,0-15.622,3.275-15.622,7.314,0,1.523.994,2.936,2.694,4.107L1933.224-900.9l6.257,3.5.066-.038,32.6,18.45L1734.53-745.134l6.257,3.5,240.784-135.6,3.071-1.716-38.786-22.026,108.553-60.883a31.961,31.961,0,0,0,5.319.436c8.628,0,15.622-3.275,15.622-7.315S2068.356-976.053,2059.729-976.053Z" transform="translate(-398.94 1003.369)" opacity="0.54" fill="url(#linear-gradient-6)"/>
      <path id="Path_72292" data-name="Path 72292" d="M1695.354-817.1l448.784-253.624-8.389-2.338L1688.225-820.1a31.244,31.244,0,0,0-6.376-.637c-8.628,0-15.622,3.275-15.622,7.315s6.994,7.314,15.622,7.314,15.622-3.275,15.622-7.314A4.85,4.85,0,0,0,1695.354-817.1Z" transform="translate(-27.697 1040.059)" opacity="0.54" fill="url(#linear-gradient-7)"/>
      <path id="Path_72293" data-name="Path 72293" d="M416.244-837.633a31.3,31.3,0,0,0-6.376.637L-37.656-1089.955l-8.389,2.337L402.739-833.993a4.849,4.849,0,0,0-2.116,3.675c0,4.04,6.994,7.314,15.622,7.314s15.622-3.275,15.622-7.314S424.872-837.633,416.244-837.633Z" transform="translate(-182.716 1027.144)" opacity="0.54" fill="url(#linear-gradient-8)"/>
      <path id="Path_72294" data-name="Path 72294" d="M1098.738-296.13,1280.7-398.256l-128.7-71.9,83.1-47.239-6.205-3.523-89.4,50.765,128.691,71.9-169.994,95.426L987.937-364.5a5.065,5.065,0,0,0,2.434-3.919c0-4.04-6.994-7.314-15.622-7.314s-15.622,3.275-15.622,7.314,6.994,7.314,15.622,7.314a31.785,31.785,0,0,0,5.644-.494L1092-299.357l-.1.055,6.257,3.495.1-.058.1.058Z" transform="translate(-146.695 550.42)" opacity="0.54" fill="url(#linear-gradient-9)"/>
      <path id="Path_72295" data-name="Path 72295" d="M38.661-613.437,257.674-490.6l110.251-61.671a5.065,5.065,0,0,1-2.434-3.919c0-4.04,6.994-7.314,15.622-7.314s15.622,3.275,15.622,7.314-6.994,7.315-15.622,7.315a31.782,31.782,0,0,1-5.644-.494L263.859-487.13l.1.055L257.7-483.58l-.1-.058-.1.058-.369-.323L26.148-613.437" transform="translate(-161.504 1010.396)" opacity="0.54" fill="url(#linear-gradient-10)"/>
      <path id="Path_72296" data-name="Path 72296" d="M1630.179-910.222c-8.628,0-15.622,3.275-15.622,7.315a5.065,5.065,0,0,0,2.434,3.919l-110.256,61.673L1259.782-975.721l-5.855,3.624,252.264,141.48.368.323.1-.058.1.058,6.257-3.5-.1-.054,111.609-62.242a31.7,31.7,0,0,0,5.644.494c8.628,0,15.622-3.275,15.622-7.314S1638.806-910.222,1630.179-910.222Z" transform="translate(-925.927 1034.105)" opacity="0.54" fill="url(#linear-gradient-11)"/>
      <path id="Path_72297" data-name="Path 72297" d="M770.041-393.808,636.676-468.913l32.6-18.449.066.037,6.257-3.5L562.02-554.556c1.7-1.17,2.693-2.585,2.693-4.107,0-4.04-6.993-7.315-15.621-7.315s-15.623,3.275-15.623,7.315,6.994,7.314,15.623,7.314a31.942,31.942,0,0,0,5.318-.436L662.965-490.9l-38.787,22.025,3.281,1.833,136.325,76.73Z" transform="translate(426.53 896.478)" opacity="0.75" fill="url(#linear-gradient-12)"/>
      <path id="Path_72298" data-name="Path 72298" d="M1841.66-340.574a32.226,32.226,0,0,1,4.888.366l210.315-116.944L1740.653-633.41l12.508,0,316.216,176.261-215.071,119.6c1.87,1.206,2.976,2.688,2.976,4.292,0,4.04-6.994,7.314-15.622,7.314s-15.622-3.275-15.622-7.314S1833.033-340.574,1841.66-340.574Z" transform="translate(-205.694 941.566)" opacity="0.54" fill="url(#linear-gradient-13)"/>
      <rect id="Rectangle_3944" data-name="Rectangle 3944" width="2040.115" height="384.979" transform="translate(-2.703 131.098)" fill="none"/>
    </g>
  </g>
</svg>
