<svg xmlns="http://www.w3.org/2000/svg" xmlns:xlink="http://www.w3.org/1999/xlink" viewBox="0 0 1213.3 1231.1"><defs><style>.acfd49c5-75c8-4c52-8cd1-875b998fb3db,.ae22371a-2cf9-43f0-ae79-f719be740729{fill:none;}.bacb931e-9641-4b84-a6d3-5515bb2ef87d{fill:url(#b881b3f7-14d3-4d74-8761-e3facd74cdc6);}.bd141524-3d24-47df-85a8-1d941eb78dda{fill:url(#f2b702f5-3697-42f0-a3d0-d93236148d16);}.e897051c-a1f0-4068-8f9c-32c3d7a6fa8d{fill:url(#b475dc21-3a1d-498b-8964-558e648e3039);}.f7936bad-d71e-4dbf-b69b-76c901a67ef0{fill:url(#b19fb2e2-1fa0-4a51-ab7b-23921ab3953e);}.b4345bba-f4dc-4601-adfa-104957c2811b{fill:url(#acad3a71-51b6-457d-ac7a-4c94e50a6c78);}.a0c7f5fe-0c2b-4f51-a768-167dff08fdd1{fill:url(#f27ecccb-70dd-4ac3-af47-ec57efaa3fcc);}.b29cbb62-c60e-4303-baf7-20684dbbde60{fill:url(#ab580d3a-24a8-452c-8c99-d945dc608d03);}.a8933d78-fa18-4b8c-88e2-3148fe341a39{fill:url(#ec2bbdc5-e992-4f83-8b27-b99921bce6aa);}.b5cad7c5-bebc-45ca-b4bc-40da207dfe47{fill:url(#f252752f-5440-43f5-a5f5-c5101df56427);}.fa3cec66-15dd-4959-bad1-6b5d344fd120{fill:url(#e4c78cab-267d-41d2-878f-a17cc127d768);}.a21d56f5-9273-4124-a833-e40b39c95afb{fill:url(#bdd56c74-b763-4586-828e-45512d0075a0);}.e30b166e-6a43-4b9b-96ea-7950890d0204{fill:url(#efcd9f84-cbdd-4c4e-9f69-81b9b1933114);}.bf9d2ae0-6ba1-4ed7-81e8-4fe3b1648d50{fill:url(#e3db7529-0ecb-4dbd-b6d4-96d58a2b7f12);}.b99df5f0-587c-459d-8fee-5a7669d5c1af{fill:url(#a722b6ba-ef77-438d-b4d8-00ba09ca83ee);}.b06fee12-b817-4074-a055-ba4b3befe36f{fill:url(#ad82b730-c8d7-431f-b252-423f5970fc19);}.a4406e7b-199a-4698-a86a-7e11217d5cd4{fill:url(#bcd71bf2-0d6b-4e7f-b98f-15fb8e16c490);}.ba4064d0-2bc7-4b6a-9002-077bc3da8041{fill:url(#be5c66b9-35e3-4bf9-bb92-411e6150e053);}.e6a67862-3f3b-4af5-affc-5d4e0fdbfae9{fill:url(#b4c84f95-283a-4516-b116-7fa1fcde0232);}.bdf517d2-c07f-40d2-9b31-b3d3bd72bf90{fill:#424242;}.b096653f-c0cf-4f31-81c1-f0b774bf68f0{fill:url(#a327ab83-4f9d-4e33-9df7-35e4ac603136);}.a70dbc13-cc2a-40fc-9bdd-4433c0b92155{fill:#fff;}.af1a1a1c-b24a-4649-95b8-170dda4c351f{fill:#f47521;}.bdce8ea1-d6b0-4964-bf28-0ade911de6a5{fill:url(#a5a06c7f-ae98-4498-a6a6-5ddf6306bd0a);}.b8b04c26-4f5e-4fcb-b576-4e5035e331dc{fill:url(#bd4c6e46-950a-49f6-99c0-09e4d52e6615);}.b38ae0f0-cd2e-443a-800b-f2d227672f89{fill:url(#afecf375-12b3-473a-9a65-bc37192cae7f);}.b6916935-38b0-43e7-873a-e0a862181093{fill:url(#ad293e29-db73-4c93-b73b-915a24a5db34);}.fc8955cd-b93c-4ecf-b5b7-a92b4421278d{fill:url(#e66b3df9-16fc-46c6-b836-6447ab1b59db);}.be4ac1f9-d69c-4e4d-8308-322375c4b47c{fill:url(#a012e2ab-88cd-4aba-8dc5-7a010612b79f);}.aa488ae3-3657-4f75-86c7-3b4c037d807c{fill:url(#a6078cb3-1e41-4d37-8977-1906341426c9);}.a8efb641-6a0c-4186-b391-92fad9fc9a8a{fill:url(#b2bb6a6f-a928-41ce-aa7f-13ad4a807a86);}.a5816fed-bdae-4432-9383-5b0465fa30a5{fill:url(#af2f0254-9087-488f-8507-6ddf815d0e55);}.ba4cf181-53c1-4ecc-af57-873bab185356{fill:url(#a373f806-bfa1-4aad-98f3-4053ac1ead38);}.a6329358-40bc-49dd-bcac-85f6d7d75331{fill:url(#a470b842-f7dc-4428-90b3-f78ae5705442);}.ffed7921-be1e-4b0e-90dd-5987b8cb076d{fill:url(#f9fd5ad9-8635-49ce-bbdf-57fae2dda131);}.a55e569d-6fc4-41a7-9caa-237781f4418b{fill:url(#b213d4ed-c85c-4cb5-9f64-b53c6b15ec82);}.b8edbfc3-e4ca-4f5b-9147-d26b3cb186d9{fill:#b3b3b3;}.e0dac13a-e1bc-401e-9f3a-5da55313cb03{fill:#4c4c4c;}.acfd49c5-75c8-4c52-8cd1-875b998fb3db{stroke:#4c4c4c;stroke-miterlimit:10;stroke-width:5.3px;}.e1fa6400-781d-43ae-a370-04cf0ab9013d{clip-path:url(#af8d0caa-708a-43f3-a727-5b0e27e667f5);}.a291cc10-03e5-421e-8c67-b8e80280dbcb{fill:url(#a238688e-8422-4198-a080-622cf6739a12);}</style><linearGradient id="b881b3f7-14d3-4d74-8761-e3facd74cdc6" x1="23.84" y1="1527.42" x2="369.06" y2="1151.56" gradientUnits="userSpaceOnUse"><stop offset="0" stop-color="#ccc"/><stop offset="1" stop-color="#ccc"/></linearGradient><linearGradient id="f2b702f5-3697-42f0-a3d0-d93236148d16" x1="442.38" y1="1535.35" x2="786.55" y2="1160.64" xlink:href="#b881b3f7-14d3-4d74-8761-e3facd74cdc6"/><linearGradient id="b475dc21-3a1d-498b-8964-558e648e3039" x1="-1941.72" y1="1055.14" x2="-1936.37" y2="1055.65" gradientTransform="matrix(8.27, 0, 0, -15.06, 16225.77, 16122.06)" gradientUnits="userSpaceOnUse"><stop offset="0" stop-color="#aa4c18"/><stop offset="1" stop-color="#f47521"/></linearGradient><linearGradient id="b19fb2e2-1fa0-4a51-ab7b-23921ab3953e" x1="-10009.69" y1="2675.89" x2="-10003.27" y2="2674.59" gradientTransform="matrix(6.12, 0, 0, -25.15, 11910.5, 25771.87)" gradientUnits="userSpaceOnUse"><stop offset="0" stop-color="#4d4d4d"/><stop offset="0.36" stop-color="#2b2b2b"/><stop offset="0.77" stop-color="#0c0c0c"/><stop offset="1"/></linearGradient><linearGradient id="acad3a71-51b6-457d-ac7a-4c94e50a6c78" x1="-2025.14" y1="1048.17" x2="-2022.09" y2="1043.75" gradientTransform="matrix(67.98, 0, 0, -39.2, 138166.7, 41135.43)" xlink:href="#b19fb2e2-1fa0-4a51-ab7b-23921ab3953e"/><linearGradient id="f27ecccb-70dd-4ac3-af47-ec57efaa3fcc" x1="-2023.33" y1="1047.84" x2="-2028.52" y2="1037.5" gradientTransform="matrix(61.84, 0, 0, -48, 125578.38, 50290.63)" gradientUnits="userSpaceOnUse"><stop offset="0" stop-color="gray"/><stop offset="1"/></linearGradient><linearGradient id="ab580d3a-24a8-452c-8c99-d945dc608d03" x1="-2026.17" y1="1050.06" x2="-2023.43" y2="1036.07" gradientTransform="matrix(52.05, 0, 0, -35.8, 105594.44, 37628.23)" gradientUnits="userSpaceOnUse"><stop offset="0" stop-color="#e4e5e9"/><stop offset="1" stop-color="#f0f1f5"/></linearGradient><linearGradient id="ec2bbdc5-e992-4f83-8b27-b99921bce6aa" x1="-2000.18" y1="1074.06" x2="-2005.38" y2="1063.74" gradientTransform="matrix(61.72, 0, 0, -48.13, 125436.25, 50429.1)" xlink:href="#f27ecccb-70dd-4ac3-af47-ec57efaa3fcc"/><linearGradient id="f252752f-5440-43f5-a5f5-c5101df56427" x1="-2001.93" y1="1052.64" x2="-2013.05" y2="1041.75" gradientTransform="matrix(51.9, 0, 0, -35.93, 105387.32, 37763.7)" gradientUnits="userSpaceOnUse"><stop offset="0" stop-color="#ccc"/><stop offset="1" stop-color="#f0f1f5"/></linearGradient><linearGradient id="e4c78cab-267d-41d2-878f-a17cc127d768" x1="-2026.11" y1="1036.34" x2="-2015.05" y2="1036.08" gradientTransform="matrix(52.16, 0, 0, -196.9, 105841.55, 204787.82)" xlink:href="#ab580d3a-24a8-452c-8c99-d945dc608d03"/><linearGradient id="bdd56c74-b763-4586-828e-45512d0075a0" x1="-2021.43" y1="1035.71" x2="-2009.17" y2="1036.75" gradientTransform="matrix(52.63, 0, 0, -197.06, 106846.64, 204952.2)" xlink:href="#f252752f-5440-43f5-a5f5-c5101df56427"/><linearGradient id="efcd9f84-cbdd-4c4e-9f69-81b9b1933114" x1="-2026.11" y1="1036.42" x2="-2015.05" y2="1036.16" gradientTransform="matrix(52.16, 0, 0, -196.9, 105841.55, 204787.82)" xlink:href="#ab580d3a-24a8-452c-8c99-d945dc608d03"/><linearGradient id="e3db7529-0ecb-4dbd-b6d4-96d58a2b7f12" x1="-2021.46" y1="1036" x2="-2009.19" y2="1037.04" gradientTransform="matrix(52.63, 0, 0, -197.06, 106846.64, 204952.2)" xlink:href="#f252752f-5440-43f5-a5f5-c5101df56427"/><linearGradient id="a722b6ba-ef77-438d-b4d8-00ba09ca83ee" x1="-1994.36" y1="1038.5" x2="-2012.14" y2="1041.53" gradientTransform="matrix(29.24, 0, 0, -59.18, 59077.02, 61889.25)" gradientUnits="userSpaceOnUse"><stop offset="0" stop-color="gray"/><stop offset="0.86"/></linearGradient><linearGradient id="ad82b730-c8d7-431f-b252-423f5970fc19" x1="-1985.76" y1="1037.17" x2="-2000.45" y2="1040.21" gradientTransform="matrix(29.27, 0, 0, -59.21, 59168.37, 61917.87)" xlink:href="#a722b6ba-ef77-438d-b4d8-00ba09ca83ee"/><linearGradient id="bcd71bf2-0d6b-4e7f-b98f-15fb8e16c490" x1="-2021.33" y1="1044.73" x2="-2019.59" y2="1078.65" gradientTransform="matrix(58.22, 0, 0, -12.17, 118239.68, 13115.22)" xlink:href="#a722b6ba-ef77-438d-b4d8-00ba09ca83ee"/><linearGradient id="be5c66b9-35e3-4bf9-bb92-411e6150e053" x1="-1932.43" y1="1072.8" x2="-1940.8" y2="1056.24" gradientTransform="matrix(12.04, 0.04, 0.04, -11.63, 23946.19, 12650.68)" gradientUnits="userSpaceOnUse"><stop offset="0.02" stop-color="gray"/><stop offset="1"/></linearGradient><radialGradient id="b4c84f95-283a-4516-b116-7fa1fcde0232" cx="-1909.84" cy="1067.43" r="17.08" gradientTransform="matrix(10.11, 0.03, 0.03, -10.11, 19995.42, 11056.81)" gradientUnits="userSpaceOnUse"><stop offset="0.64" stop-color="gray"/><stop offset="1"/></radialGradient><radialGradient id="a327ab83-4f9d-4e33-9df7-35e4ac603136" cx="-1846.97" cy="1082.47" r="16.7" gradientTransform="matrix(5.8, 0.02, 0.02, -5.8, 11220.41, 6563.17)" gradientUnits="userSpaceOnUse"><stop offset="0" stop-color="gray"/><stop offset="0.38" stop-color="#7d7d7d"/><stop offset="0.54" stop-color="#767676"/><stop offset="0.66" stop-color="#6a6a6a"/><stop offset="0.76" stop-color="#585858"/><stop offset="0.84" stop-color="#414141"/><stop offset="0.92" stop-color="#252525"/><stop offset="0.99" stop-color="#040404"/><stop offset="1"/></radialGradient><linearGradient id="a5a06c7f-ae98-4498-a6a6-5ddf6306bd0a" x1="-1953.24" y1="1054.26" x2="-1966.2" y2="1037.35" gradientTransform="matrix(0, 15.18, 17.71, 0, -17863.61, 30202.22)" gradientUnits="userSpaceOnUse"><stop offset="0.49" stop-color="gray"/><stop offset="1"/></linearGradient><radialGradient id="bd4c6e46-950a-49f6-99c0-09e4d52e6615" cx="-1837.81" cy="1065.41" r="21.94" gradientTransform="matrix(5.62, 0.02, 0.02, -5.62, 10861.49, 6396.33)" xlink:href="#b4c84f95-283a-4516-b116-7fa1fcde0232"/><linearGradient id="afecf375-12b3-473a-9a65-bc37192cae7f" x1="-2013.32" y1="1031.61" x2="-2016.84" y2="1039.01" gradientTransform="matrix(0, 51.6, 24.92, 0, -25337.31, 104542.5)" xlink:href="#be5c66b9-35e3-4bf9-bb92-411e6150e053"/><linearGradient id="ad293e29-db73-4c93-b73b-915a24a5db34" x1="-2002.57" y1="1031.48" x2="-2013.23" y2="1047" gradientTransform="matrix(0, 38.22, 21.59, 0, -21885.21, 77226.65)" xlink:href="#be5c66b9-35e3-4bf9-bb92-411e6150e053"/><linearGradient id="e66b3df9-16fc-46c6-b836-6447ab1b59db" x1="-1937.19" y1="1032.62" x2="-1947.22" y2="1047.23" gradientTransform="matrix(0, 12.52, 14.61, 0, -14655.21, 24788.85)" gradientUnits="userSpaceOnUse"><stop offset="0.14" stop-color="gray"/><stop offset="1"/></linearGradient><linearGradient id="a012e2ab-88cd-4aba-8dc5-7a010612b79f" x1="-1907.66" y1="1078.85" x2="-1917.75" y2="1039.9" gradientTransform="matrix(0, 9.51, 7, 0, -6762.57, 18628.38)" xlink:href="#a5a06c7f-ae98-4498-a6a6-5ddf6306bd0a"/><linearGradient id="a6078cb3-1e41-4d37-8977-1906341426c9" x1="-1911.23" y1="1147.82" x2="-1916" y2="1060.2" gradientTransform="matrix(0, 9.51, 1.47, 0, -993.41, 18667.44)" xlink:href="#a5a06c7f-ae98-4498-a6a6-5ddf6306bd0a"/><linearGradient id="b2bb6a6f-a928-41ce-aa7f-13ad4a807a86" x1="-1911.23" y1="1193.92" x2="-1916" y2="1106.29" gradientTransform="matrix(0, 9.51, 1.47, 0, -1061.01, 18589.21)" xlink:href="#a5a06c7f-ae98-4498-a6a6-5ddf6306bd0a"/><linearGradient id="af2f0254-9087-488f-8507-6ddf815d0e55" x1="-1781.63" y1="1069.17" x2="-1774.95" y2="1054.37" gradientTransform="matrix(4.56, 0, 0, -4.56, 8712.71, 5258.25)" xlink:href="#b4c84f95-283a-4516-b116-7fa1fcde0232"/><radialGradient id="a373f806-bfa1-4aad-98f3-4053ac1ead38" cx="-1664.39" cy="1088.14" r="32.37" gradientTransform="matrix(2.98, 0.01, 0.01, -2.98, 5481.54, 3641.67)" xlink:href="#a327ab83-4f9d-4e33-9df7-35e4ac603136"/><linearGradient id="a470b842-f7dc-4428-90b3-f78ae5705442" x1="-1820.59" y1="1058.63" x2="-1838.39" y2="1070.22" gradientTransform="matrix(6.23, 0, 0, -9.93, 12128.51, 10784.41)" xlink:href="#b4c84f95-283a-4516-b116-7fa1fcde0232"/><linearGradient id="f9fd5ad9-8635-49ce-bbdf-57fae2dda131" x1="-1856.13" y1="1069.39" x2="-1846.75" y2="1078.83" gradientTransform="matrix(6.22, 0, 0, -9.93, 12098.48, 10784.36)" xlink:href="#b4c84f95-283a-4516-b116-7fa1fcde0232"/><linearGradient id="b213d4ed-c85c-4cb5-9f64-b53c6b15ec82" x1="-1880.79" y1="1075.07" x2="-1913.08" y2="1059.49" gradientTransform="matrix(0, 9.34, 14.31, 0, -14565.5, 18017.5)" xlink:href="#b4c84f95-283a-4516-b116-7fa1fcde0232"/><clipPath id="af8d0caa-708a-43f3-a727-5b0e27e667f5"><path class="ae22371a-2cf9-43f0-ae79-f719be740729" d="M604,677.7a9.3,9.3,0,0,1-5.6-4.5,5.4,5.4,0,0,1-.1-4.5,9.8,9.8,0,0,1,9.4-5.6h1.5a10.6,10.6,0,0,1,8.5,5.9,13.8,13.8,0,0,1,.6,9.8h-5.1a29.1,29.1,0,0,1-9.3-1.3M588.3,691a24.5,24.5,0,0,1-18.6-21.4,27.4,27.4,0,0,1,6.7-20.8,43.3,43.3,0,0,1,29.2-14.3h3.2a39.9,39.9,0,0,1,26.1,9.3,22.5,22.5,0,0,1,8.1,21.1,17.6,17.6,0,0,1-13.7,12.9,41.5,41.5,0,0,1-9.3,1.1,14.2,14.2,0,0,0-15.4-19.3,13.6,13.6,0,0,0-10.8,8.1,10.6,10.6,0,0,0,1.8,10.9,24,24,0,0,0,18.2,6.8,25.8,25.8,0,0,1-17.9,6.8,30.8,30.8,0,0,1-7.5-1M603.2,627a49.3,49.3,0,0,0-34.1,20.2,32.2,32.2,0,0,0-4.6,27.1,30.4,30.4,0,0,0,25.9,21.3,25.6,25.6,0,0,0,3.9.3A26.4,26.4,0,0,0,616,685.4l7.4-.2h.6a26.3,26.3,0,0,0,26.6-20.6,27.4,27.4,0,0,0-7.5-23.9,50.3,50.3,0,0,0-34.7-13.9l-5.2.2"/></clipPath><linearGradient id="a238688e-8422-4198-a080-622cf6739a12" x1="-4710.39" y1="938.41" x2="-4710.27" y2="938.41" gradientTransform="matrix(9.39, 0, 0, -12.24, 19876.26, 12148.49)" gradientUnits="userSpaceOnUse"><stop offset="0" stop-color="#f47521"/><stop offset="1" stop-color="#f79720"/><stop offset="1" stop-color="#f79720"/></linearGradient></defs><g id="aff361a9-407f-4cd7-8ee8-8659842f891d" data-name="Layer 2"><g id="f09336ef-9cbb-4d2d-829c-51e31e4385de" data-name="Layer 1"><path class="bacb931e-9641-4b84-a6d3-5515bb2ef87d" d="M603.3,1007.1l-395.5-1.2c-18.7-.1-34.4,21.9-35.7,50.2l-8.1,175H602.6Z"/><path class="bd141524-3d24-47df-85a8-1d941eb78dda" d="M1036.7,1058.9c-1.1-28.3-16.6-50.4-35.4-50.4l-395.5-1.3-.7,223.9h438.4Z"/><path id="a0909e58-399a-46d8-a2b7-f81476d35c86" data-name="Path 15309" class="e897051c-a1f0-4068-8f9c-32c3d7a6fa8d" d="M156.3,284.5H135.6a20.1,20.1,0,0,1-20-20.1c.1-22.6.2-45.3.2-67.9a19.8,19.8,0,0,1,9-16.6,39.5,39.5,0,0,1,42.9.1,19.6,19.6,0,0,1,8.8,16.7c0,22.6-.1,45.3-.2,67.9A19.8,19.8,0,0,1,156.3,284.5Z"/><rect id="b6dea89a-8e46-4fa9-82ae-47ebf540796d" data-name="Rectangle 550" class="f7936bad-d71e-4dbf-b69b-76c901a67ef0" x="537" y="20.2" width="45.1" height="185.17" transform="translate(48.3 366.7) rotate(-37.8)"/><path id="b72c7868-6e9e-4b68-b629-cb2083484ac6" data-name="Path 15310" class="b4345bba-f4dc-4601-adfa-104957c2811b" d="M606.9,288.6c-140.3-.5-250.1-64.2-249.8-145.1S467.5-.5,607.8,0,857.9,64.2,857.6,145.1,747.2,289.1,606.9,288.6Zm.8-243.5c-57.2-.2-110.6,11.4-150.5,32.5-34.9,18.5-54.9,42.6-55,66S422,191.3,456.8,210c39.7,21.4,93.1,33.3,150.2,33.5S717.7,232.1,757.5,211c34.9-18.5,55-42.6,55-66S792.7,97.3,758,78.6c-39.8-21.4-93.1-33.3-150.3-33.5Z"/><path id="b5d07309-ea1f-41a0-840c-1be345f9b4dd" data-name="Path 15312" class="a0c7f5fe-0c2b-4f51-a768-167dff08fdd1" d="M5.3,359.4l31.9,41.1S81,467.6,145.9,490.9s110.8,34.3,110.8,34.3l64.1-30.8,27-15.9,95.4-125.6S461.6,229,460.6,225s-14.9-37.1-14.9-37.1l-36.9-16.1-47,3.8-78.1,33.8-77,23.7"/><path id="bca5b11e-104f-4e54-a3c0-45b521099232" data-name="Path 15314" class="b29cbb62-c60e-4303-baf7-20684dbbde60" d="M370.1,159.3h-8.2a13.3,13.3,0,0,0-8.2,2.8L337.3,175,98.2,200.7s-79.9,9.4-84.4,34.1S.1,343,.1,343s-3.4,28.6,23.1,37.7c22.4,7.7,146.2,33.8,184.5,41.8a15.9,15.9,0,0,0,17.1-7.7c19.1-33.8,77.1-130.4,82.7-132.3,15.8-16.5,43.2-15.1,61.2-16.4a11.7,11.7,0,0,0,10.8-11.2l3.7-81.8a13.1,13.1,0,0,0-12.5-13.8Z"/><path id="edbb305a-0395-43a5-a90a-803ad4c274c3" data-name="Path 15316" class="a8933d78-fa18-4b8c-88e2-3148fe341a39" d="M1208,363.3l-32.2,40.9s-44.1,66.8-109.2,89.6-111.1,33.6-111.1,33.6l-63.9-31.1-26.9-16.1L770.1,353.9s-17.5-124-16.5-128,15.1-37,15.1-37l37-15.8,47,4.1,77.9,34.3,76.9,24.2"/><path id="a2e95fc6-5894-4504-bd54-770d9571827d" data-name="Path 15318" class="b5cad7c5-bebc-45ca-b4bc-40da207dfe47" d="M844.5,160.8h8.2a14.1,14.1,0,0,1,8.2,2.9l16.3,13L1116.1,204s79.8,9.8,84.2,34.6,12.9,108.3,12.9,108.3,3.3,28.6-23.3,37.5c-22.4,7.5-146.3,32.9-184.8,40.6a15.7,15.7,0,0,1-17-7.8c-18.9-33.9-76.3-130.9-81.8-132.8-15.7-16.6-43.2-15.4-61.1-16.8a11.8,11.8,0,0,1-10.8-11.3l-3.1-81.8A13,13,0,0,1,844,160.9Z"/><path class="fa3cec66-15dd-4959-bad1-6b5d344fd120" d="M606.9,277.3l-257.6.5a50.2,50.2,0,0,0-43.4,24.9L238.3,420.8a116.6,116.6,0,0,0-15.4,47.6l16.5,762.7H603.8Z"/><path class="a21d56f5-9273-4124-a833-e40b39c95afb" d="M603.8,1231.1H969.5l20.2-760.2a116.6,116.6,0,0,0-15.1-47.7L907.8,304.6a50.4,50.4,0,0,0-43.3-25.1l-257.6-2.2h0Z"/><polygon class="e30b166e-6a43-4b9b-96ea-7950890d0204" points="603.8 1231.1 606.9 277.3 606.9 277.3 603.8 1231.1 603.8 1231.1"/><polygon class="bf9d2ae0-6ba1-4ed7-81e8-4fe3b1648d50" points="603.8 1231.1 606.9 277.3 606.9 277.3 603.8 1231.1 603.8 1231.1"/><path id="aeecb782-fb74-44c8-b3f9-360b811692e1" data-name="Path 15319" class="b99df5f0-587c-459d-8fee-5a7669d5c1af" d="M607.4,141.7a1302.2,1302.2,0,0,0-192.3,13.5c-12.2,1.8-22.1,10.4-22.1,19l-.9,298.1c-.3,57,66.7,104.1,149.5,104.9l64.4.2Z"/><path id="ec399896-fac6-4229-9f5a-785c35ed42c1" data-name="Path 15320" class="b06fee12-b817-4074-a055-ba4b3befe36f" d="M799.5,156.5a1300.8,1300.8,0,0,0-192.1-14.8l-1.5,435.7,64.4.2c82.8-.2,150.1-46.9,150.2-103.9l1-298.1C821.5,167,811.7,158.3,799.5,156.5Z"/><path id="fe1713f4-01b3-471d-a3e0-a2c6f0149830" data-name="Path 15321" class="a4406e7b-199a-4698-a86a-7e11217d5cd4" d="M799.5,162.6a918.9,918.9,0,0,0-384.4-1.2A29.3,29.3,0,0,0,393,188.6v41.3l428.5,1.4V190A29.3,29.3,0,0,0,799.5,162.6Z"/><path id="aa7563ac-9a37-4db9-bb69-c226b89712a8" data-name="Rectangle 551" class="ba4064d0-2bc7-4b6a-9002-077bc3da8041" d="M569,252.6l76.1.3a6.3,6.3,0,0,1,6.2,6.3h0l-.2,79.3h0l-88.7-.3h0l.2-79.3a6.4,6.4,0,0,1,6.4-6.3Z"/><circle id="bb61d978-f443-415e-b6db-8ac1b69c0300" data-name="Ellipse 266" class="e6a67862-3f3b-4af5-affc-5d4e0fdbfae9" cx="607.2" cy="298.7" r="37.2"/><circle id="b831aa79-039b-4c79-b3a0-236feae2c7d5" data-name="Ellipse 267" class="bdf517d2-c07f-40d2-9b31-b3d3bd72bf90" cx="607.2" cy="298.7" r="29.8"/><circle id="e3703654-94a2-4c58-b38b-42e77b273636" data-name="Ellipse 268" class="b096653f-c0cf-4f31-81c1-f0b774bf68f0" cx="607.2" cy="298.7" r="21.4"/><circle id="a9839bc3-f1c1-4c97-92b8-7affc3b32925" data-name="Ellipse 269" class="a70dbc13-cc2a-40fc-9bdd-4433c0b92155" cx="617.8" cy="291.6" r="6.7"/><path id="bdffcf38-2aac-4b5f-b093-8f5933870cc9" data-name="Path 15322" class="af1a1a1c-b24a-4649-95b8-170dda4c351f" d="M611.2,351.7s-69.9,2.1-72.2,20.1-.3,103.7-.3,103.7-9.1,22.5,69.8,18.3"/><rect id="f10de7ed-f16e-40fb-812f-fc4a7c5104eb" data-name="Rectangle 552" class="bdce8ea1-d6b0-4964-bf28-0ade911de6a5" x="539.4" y="370.2" width="130.4" height="111.74" rx="7.9" transform="translate(176.5 1029.3) rotate(-89.8)"/><circle id="bb34c247-9c32-459d-9299-cbe14c9a8b9d" data-name="Ellipse 270" class="b8b04c26-4f5e-4fcb-b576-4e5035e331dc" cx="605.3" cy="422.7" r="20.7"/><rect id="fc8cf7e5-3bb3-470f-b40a-582de38eb0c8" data-name="Rectangle 553" class="b38ae0f0-cd2e-443a-800b-f2d227672f89" x="514.7" y="236.1" width="183.5" height="379.89" rx="10.9" transform="translate(178.4 1031.1) rotate(-89.8)"/><rect id="adaf53e3-de61-4e93-8ffa-9dd2a001e329" data-name="Rectangle 554" class="b6916935-38b0-43e7-873a-e0a862181093" x="527" y="285.4" width="158.9" height="281.36" rx="8.7" transform="translate(178.4 1031.1) rotate(-89.8)"/><path id="a9feabfe-288b-4404-9cba-e2c4bc8c3036" data-name="Path 15323" class="af1a1a1c-b24a-4649-95b8-170dda4c351f" d="M557.8,365.3l-71.9,6.2a1.4,1.4,0,0,0-1.3,1.5,1.3,1.3,0,0,0,1.2,1.3l70.1,8.1a1.5,1.5,0,0,0,1.6-1.3v-.3C556.9,376,555.4,363.2,557.8,365.3Z"/><path id="ab1c3791-78ad-475f-8b20-b42215ca911f" data-name="Path 15324" class="af1a1a1c-b24a-4649-95b8-170dda4c351f" d="M557.7,382.6l-71.9,6.2a1.5,1.5,0,0,0-1.3,1.6,1.4,1.4,0,0,0,1.3,1.2l70,8.1a1.5,1.5,0,0,0,1.6-1.2v-.4C556.8,393.3,555.3,380.5,557.7,382.6Z"/><path id="b0586b67-9518-44ae-aae9-6a27cc794bfe" data-name="Path 15325" class="af1a1a1c-b24a-4649-95b8-170dda4c351f" d="M557.7,382.6l-71.9,6.2a1.5,1.5,0,0,0-1.3,1.6,1.4,1.4,0,0,0,1.3,1.2l70,8.1a1.5,1.5,0,0,0,1.6-1.2v-.4C556.8,393.3,555.3,380.5,557.7,382.6Z"/><path id="a81e5816-e1af-444d-a8a7-42311911d25f" data-name="Path 15326" class="af1a1a1c-b24a-4649-95b8-170dda4c351f" d="M557.7,399.9l-71.9,6.2a1.4,1.4,0,0,0-1.3,1.5,1.4,1.4,0,0,0,1.2,1.3l70.1,8.1a1.5,1.5,0,0,0,1.6-1.3v-.3C556.8,410.5,555.3,397.8,557.7,399.9Z"/><path id="a7148e05-521f-44c2-8c04-3478344a3327" data-name="Path 15327" class="af1a1a1c-b24a-4649-95b8-170dda4c351f" d="M557.6,417.2l-71.9,6.2a1.4,1.4,0,0,0,0,2.8l70,8.1a1.5,1.5,0,0,0,1.6-1.3v-.3C556.7,427.8,555.2,415.1,557.6,417.2Z"/><path id="e29d1e2a-ad36-4862-b2df-53fa89b0bd22" data-name="Path 15328" class="af1a1a1c-b24a-4649-95b8-170dda4c351f" d="M557.6,434.5l-72,6.2a1.4,1.4,0,0,0-1.2,1.5,1.5,1.5,0,0,0,1.2,1.3l70.1,8a1.4,1.4,0,0,0,1.6-1.2v-.4C556.6,445.1,555.2,432.4,557.6,434.5Z"/><path id="bc827364-7b61-4915-8458-5b449a951d6a" data-name="Path 15329" class="af1a1a1c-b24a-4649-95b8-170dda4c351f" d="M557.5,451.7l-71.9,6.2a1.5,1.5,0,0,0-1.3,1.6,1.5,1.5,0,0,0,1.2,1.3l70.1,8a1.4,1.4,0,0,0,1.6-1.2v-.4C556.6,462.4,555.1,449.6,557.5,451.7Z"/><path id="ac9d75b8-e4d8-4c36-9e93-37917f25e7bf" data-name="Path 15330" class="af1a1a1c-b24a-4649-95b8-170dda4c351f" d="M557.5,469l-71.9,6.2a1.5,1.5,0,0,0-1.3,1.6,1.6,1.6,0,0,0,1.2,1.3l70.1,8a1.5,1.5,0,0,0,1.6-1.2v-.4C556.5,479.7,555.1,466.9,557.5,469Z"/><path id="ba5a603c-2700-4bf4-97b5-8dd7230f1196" data-name="Path 15331" class="af1a1a1c-b24a-4649-95b8-170dda4c351f" d="M652.1,365.6l71.8,6.7a1.3,1.3,0,0,1,1.3,1.5,1.5,1.5,0,0,1-1.3,1.3l-70.1,7.6a1.5,1.5,0,0,1-1.6-1.3v-.3C652.9,376.3,654.5,363.5,652.1,365.6Z"/><path id="ab6fd5d6-70b2-4b5a-9439-645a53dff3b3" data-name="Path 15332" class="af1a1a1c-b24a-4649-95b8-170dda4c351f" d="M652,382.9l71.9,6.6a1.5,1.5,0,0,1,0,2.9L653.8,400a1.5,1.5,0,0,1-1.6-1.3v-.3C652.9,393.6,654.4,380.8,652,382.9Z"/><path id="ef4ab9c5-1b32-44a5-81ab-463ca287b805" data-name="Path 15333" class="af1a1a1c-b24a-4649-95b8-170dda4c351f" d="M652,382.9l71.9,6.6a1.5,1.5,0,0,1,0,2.9L653.8,400a1.5,1.5,0,0,1-1.6-1.3v-.3C652.9,393.6,654.4,380.8,652,382.9Z"/><path id="a0a7b707-f1ae-43d9-8112-b9efcae3c1ca" data-name="Path 15334" class="af1a1a1c-b24a-4649-95b8-170dda4c351f" d="M651.9,400.2l71.9,6.6a1.5,1.5,0,0,1,1.3,1.6,1.5,1.5,0,0,1-1.3,1.3l-70.1,7.6a1.5,1.5,0,0,1-1.6-1.3v-.3C652.8,410.9,654.4,398.1,651.9,400.2Z"/><path id="b3ca556d-8569-426b-86bc-830f38af6f16" data-name="Path 15335" class="af1a1a1c-b24a-4649-95b8-170dda4c351f" d="M651.9,417.5l71.9,6.6a1.5,1.5,0,0,1,1.2,1.6,1.4,1.4,0,0,1-1.2,1.2l-70.2,7.6a1.3,1.3,0,0,1-1.5-1.2v-.4C652.8,428.1,654.3,415.4,651.9,417.5Z"/><path id="a6733e08-d9d7-4b6b-8355-efde22decddc" data-name="Path 15336" class="af1a1a1c-b24a-4649-95b8-170dda4c351f" d="M651.8,434.8l71.9,6.6A1.5,1.5,0,0,1,725,443a1.5,1.5,0,0,1-1.3,1.2l-70.1,7.6a1.5,1.5,0,0,1-1.6-1.2v-.4C652.7,445.4,654.2,432.7,651.8,434.8Z"/><path id="ae0f6619-f653-453b-b4ab-765781f298ac" data-name="Path 15337" class="af1a1a1c-b24a-4649-95b8-170dda4c351f" d="M651.8,452.1l71.8,6.6a1.5,1.5,0,0,1,1.3,1.6,1.5,1.5,0,0,1-1.3,1.2l-70.1,7.6a1.3,1.3,0,0,1-1.5-1.2c-.1-.2-.1-.3,0-.4C652.6,462.7,654.2,450,651.8,452.1Z"/><path id="aa6452ac-e131-45cc-9327-499fe2eb7f74" data-name="Path 15338" class="af1a1a1c-b24a-4649-95b8-170dda4c351f" d="M651.7,469.3l71.9,6.7a1.4,1.4,0,0,1,0,2.8l-70.1,7.6a1.5,1.5,0,0,1-1.6-1.3v-.3C652.6,480,654.1,467.3,651.7,469.3Z"/><rect id="f0685ed4-3d2b-4fe4-959c-bc2f2282d900" data-name="Rectangle 555" class="af1a1a1c-b24a-4649-95b8-170dda4c351f" x="535.3" y="366.7" width="138.6" height="118.79" rx="8.4" transform="matrix(0, -1, 1, 0, 176.52, 1029.27)"/><rect id="f43d1080-5263-4848-ac23-42c5af10ba48" data-name="Rectangle 556" class="fc8955cd-b93c-4ecf-b5b7-a92b4421278d" x="550.8" y="380" width="107.6" height="92.22" rx="6.5" transform="translate(176.5 1029.3) rotate(-89.8)"/><rect id="b3ba565d-8dd4-40ca-b81a-b1147fb696a0" data-name="Rectangle 557" class="be4ac1f9-d69c-4e4d-8308-322375c4b47c" x="578.8" y="391" width="51.6" height="70" rx="3.7" transform="translate(176.7 1029.3) rotate(-89.8)"/><rect id="b8619df4-d7d0-46a0-ac6e-213353ded373" data-name="Rectangle 558" class="aa488ae3-3657-4f75-86c7-3b4c037d807c" x="599" y="430.1" width="10.8" height="70" rx="0.8" transform="translate(137.6 1068.1) rotate(-89.8)"/><rect id="a0e763a7-b9aa-4a8e-9d72-6d0e424ebe14" data-name="Rectangle 559" class="a8efb641-6a0c-4186-b391-92fad9fc9a8a" x="599.3" y="351.9" width="10.8" height="70" rx="0.8" transform="translate(215.8 990.3) rotate(-89.8)"/><circle id="a2e85ad9-0029-4fee-9842-1e081753e189" data-name="Ellipse 271" class="a5816fed-bdae-4432-9383-5b0465fa30a5" cx="605.3" cy="425.9" r="16.8"/><circle id="b88c494f-0376-4c68-a1e8-98d07972a3ee" data-name="Ellipse 272" class="ba4cf181-53c1-4ecc-af57-873bab185356" cx="605.3" cy="425.9" r="11"/><circle id="b9391007-6a78-4528-92c8-8f6a0e9e4439" data-name="Ellipse 273" class="a70dbc13-cc2a-40fc-9bdd-4433c0b92155" cx="609.9" cy="422.4" r="3.9"/><path id="bb89d77e-4075-4736-aaaf-a85eb829d78b" data-name="Path 15339" class="a6329358-40bc-49dd-bcac-85f6d7d75331" d="M661.7,96.7l18.6,64.6a19.7,19.7,0,0,1-18.8,8.3H634.4"/><path id="f4f03f68-8d39-439a-89eb-6002cb69c3f7" data-name="Path 15340" class="ffed7921-be1e-4b0e-90dd-5987b8cb076d" d="M553.3,96.3l-18.9,64.6a19.9,19.9,0,0,0,18.7,8.4h27.1"/><rect id="adb10300-8e7f-4127-8bd1-8064e8a46a3c" data-name="Rectangle 560" class="a55e569d-6fc4-41a7-9caa-237781f4418b" x="555.6" y="132.4" width="105.4" height="68.74" rx="4.9" transform="translate(439.6 774.6) rotate(-89.8)"/><path id="ba842fe0-740a-48ad-9391-f002ae84416a" data-name="Path 15341" class="b8edbfc3-e4ca-4f5b-9147-d26b3cb186d9" d="M607.5,96.5l-54.2-.2,4,43.8s8.3,20.9,50,21,50.1-20.7,50.1-20.7l4.3-43.7Z"/><g id="e1a2978b-d2cd-4711-b59c-b63195ae005c" data-name="Group 2989"><g id="ec6ce428-7f4e-46ac-83c3-ddbcc73a8b96" data-name="Group 2986"><path id="be0266de-55c0-43a5-882f-ad9b101c5683" data-name="Path 15342" class="e0dac13a-e1bc-401e-9f3a-5da55313cb03" d="M528.1,732.8a24.6,24.6,0,0,1-23.7,25.5,24,24,0,0,1-16.2-5.3v3.8H475.4l.2-69.9h12.8v25.3a24.6,24.6,0,0,1,39.8,20.3v.2m-12.5,0a13.4,13.4,0,0,0-12.1-14.6h-1.4a14.5,14.5,0,0,0-.1,29,13.3,13.3,0,0,0,13.7-13v-1.4"/><path id="bc3fc219-6ee0-45d8-944d-c3d08baf5ab3" data-name="Path 15343" class="e0dac13a-e1bc-401e-9f3a-5da55313cb03" d="M565,708.4l-.7,12.3h-2.8c-11.9,0-17.3,7.2-17.4,20.7V757H531.3V708.6h12.8v8.8a20.5,20.5,0,0,1,17.4-9.5,12.7,12.7,0,0,1,3.4.4"/><path id="b0b91866-3952-4104-8d86-e8ecfc9c32c0" data-name="Path 15344" class="e0dac13a-e1bc-401e-9f3a-5da55313cb03" d="M617.3,757.3H604.5v-3.8a25.3,25.3,0,1,1-28.8-41.7,25.9,25.9,0,0,1,12.9-4.4,23.9,23.9,0,0,1,16,5.4v-3.9h12.8Zm-12.7-24.2A14.2,14.2,0,0,0,591,718.4h-.2a14.6,14.6,0,0,0-.1,29.1,14,14,0,0,0,13.9-14.2v-.2"/><path id="b3b3ac5b-8496-4d10-92d8-9c23a8c37f1b" data-name="Path 15345" class="e0dac13a-e1bc-401e-9f3a-5da55313cb03" d="M639.7,695.5a7.8,7.8,0,0,1-15.6,0,7.8,7.8,0,0,1,15.6,0h0"/><rect id="a5c1701a-47b3-4754-a15c-58a766d26560" data-name="Rectangle 561" class="e0dac13a-e1bc-401e-9f3a-5da55313cb03" x="607.6" y="726.7" width="48.4" height="12.81" transform="translate(-103.4 1362.5) rotate(-89.8)"/><path id="e5b75d8d-6a69-4761-870b-a71bc7801b30" data-name="Path 15346" class="e0dac13a-e1bc-401e-9f3a-5da55313cb03" d="M693.6,728v29.5H680.7V730.7a10,10,0,0,0-8.6-11.3H671c-7.2,0-12,4.8-12,16.7v21.4H646.1V709H659v4.4a20.3,20.3,0,0,1,15.3-5.8A19,19,0,0,1,693.7,726a12.7,12.7,0,0,1-.1,2"/><path id="f43e76b8-43d1-421c-b281-95d68cf8416c" data-name="Path 15347" class="e0dac13a-e1bc-401e-9f3a-5da55313cb03" d="M714.2,702.4a13.9,13.9,0,0,1-13.4,14.4,13.9,13.9,0,1,1-.9-27.8h.5a13.5,13.5,0,0,1,13.8,13.2Zm-7.9,0a6,6,0,1,0-11.9.7,5.9,5.9,0,0,0,5.9,5.6,5.9,5.9,0,0,0,6-5.9Z"/><path id="e620a61e-6e0d-4506-b706-17c5d19863a2" data-name="Path 15348" class="e0dac13a-e1bc-401e-9f3a-5da55313cb03" d="M739.2,696.6l-7.7,1.5a3.7,3.7,0,0,0-3.6-3c-1.4,0-2.4.7-2.4,1.8s.2,1.1,1.3,1.4l5,1.3c4.9,1.2,7.5,3.5,7.5,7.7,0,6.2-6,8.6-11.2,8.6a10.8,10.8,0,0,1-11.9-8.1l8.1-1.4a3.8,3.8,0,0,0,4,3.2c1.5,0,2.6-.6,2.6-1.7s-.3-1.2-1.4-1.5l-5.3-1.3c-4.6-1.1-7.1-3.5-7.1-7.6s4.8-8.4,10.8-8.4S738.3,691.8,739.2,696.6Z"/></g><path id="b1e1acfd-6d53-4f46-ac78-2aeeeae8715b" data-name="Path 15349" class="af1a1a1c-b24a-4649-95b8-170dda4c351f" d="M575.8,776.6a4.4,4.4,0,0,1-4.1,4.7h-.2a4.2,4.2,0,0,1-2.8-1V784h-2.8V772.1h2.8v.8a3.8,3.8,0,0,1,2.7-1,4.4,4.4,0,0,1,4.3,4.6Zm-2.8,0a2.1,2.1,0,0,0-1.9-2.3h-.2a2.3,2.3,0,0,0-2.1,2.4,2.3,2.3,0,0,0,2.1,2.2,2.2,2.2,0,0,0,2.2-2.1v-.2Z"/><path id="a8f92e5e-115f-4208-8d85-10607489b84f" data-name="Path 15350" class="af1a1a1c-b24a-4649-95b8-170dda4c351f" d="M586.4,776.6a4.8,4.8,0,0,1-4.6,5.1,4.8,4.8,0,0,1-5.1-4.6,4.9,4.9,0,0,1,4.7-5.1h.2a4.6,4.6,0,0,1,4.8,4.4Zm-2.7,0a2.1,2.1,0,0,0-2.2-2,2.2,2.2,0,0,0-2.1,2.3,2.2,2.2,0,0,0,2.2,2,2.1,2.1,0,0,0,2.1-2.3Z"/><path id="a9d6750f-bfd6-4308-abdd-71bb6055561a" data-name="Path 15351" class="af1a1a1c-b24a-4649-95b8-170dda4c351f" d="M597.7,781.1h-2.4l-1.6-4.8-1.6,4.8h-2.4l-2.8-8.9h2.7l1.5,4.8,1.6-4.8h2l1.7,4.8,1.5-4.8h2.7Z"/><path id="f3ddd533-0d60-4e7f-af52-5f50d526d70e" data-name="Path 15352" class="af1a1a1c-b24a-4649-95b8-170dda4c351f" d="M610.2,777.4h-6.4a2,2,0,0,0,2.3,1.7,1.8,1.8,0,0,0,1.4-1l2.5.5a4.5,4.5,0,0,1-4.4,2.8,4.5,4.5,0,0,1-4.6-4.7,4.7,4.7,0,0,1,4.7-4.7,4.5,4.5,0,0,1,4.5,4.4v1Zm-6.4-1.7h3.7a1.8,1.8,0,0,0-1.8-1.4,2,2,0,0,0-1.9,1.4Z"/><path id="f228f7cb-4dee-43e4-9223-938f2e5b660a" data-name="Path 15353" class="af1a1a1c-b24a-4649-95b8-170dda4c351f" d="M618.2,772.3v2.8h-.5c-2,0-3.1,1-3.1,3.3v2.7h-2.8v-8.8h2.8V774a3.5,3.5,0,0,1,3.1-1.8Z"/><path id="ec7859fd-18a4-403a-a777-28cb71e39b43" data-name="Path 15354" class="af1a1a1c-b24a-4649-95b8-170dda4c351f" d="M628,777.5h-6.5a2.1,2.1,0,0,0,2.4,1.7,1.8,1.8,0,0,0,1.4-1l2.5.5a4.5,4.5,0,0,1-4.4,2.8,4.7,4.7,0,0,1-4.7-4.7,4.8,4.8,0,0,1,4.8-4.7,4.5,4.5,0,0,1,4.5,4.4v1Zm-6.4-1.8h3.7a1.9,1.9,0,0,0-1.8-1.4A2,2,0,0,0,621.6,775.7Z"/><path id="a32a16a9-3ad7-4eb0-94c8-8e928af94193" data-name="Path 15355" class="af1a1a1c-b24a-4649-95b8-170dda4c351f" d="M638.8,781.2H636v-.7a4.1,4.1,0,0,1-2.8.9,4.6,4.6,0,0,1-4.3-5,4.5,4.5,0,0,1,4.3-4.3,3.7,3.7,0,0,1,2.8,1v-4.6h2.8Zm-2.8-4.4a2.3,2.3,0,0,0-2.1-2.3h-.1a2.3,2.3,0,0,0,0,4.6,2.2,2.2,0,0,0,2.2-2.3Z"/><path id="b1373782-6a01-4b79-ae2b-a356bb05a473" data-name="Path 15356" class="acfd49c5-75c8-4c52-8cd1-875b998fb3db" d="M562.4,776.8l-88.8-.2a21.1,21.1,0,0,1-20.9-21.1l.3-77.2a20.9,20.9,0,0,1,21-20.9h0l86.3.3"/><path id="f85b2d0c-4fa8-4c23-b357-2841aefaf571" data-name="Path 15357" class="acfd49c5-75c8-4c52-8cd1-875b998fb3db" d="M654.2,658l83.8.3a20.7,20.7,0,0,1,20.3,21l-.3,77.2a20.6,20.6,0,0,1-20.4,20.9l-95.3-.3"/><g id="e94bf94a-e9a6-472c-9af5-d68f8ba9e778" data-name="Group 2988"><g class="e1fa6400-781d-43ae-a370-04cf0ab9013d"><g id="ac51b3c7-219d-4fd5-89bd-c9a2bf5a5c65" data-name="Group 2987"><rect id="baeab4ca-b2fb-4b3a-a14f-4050f1ba8df1" data-name="Rectangle 562" class="a291cc10-03e5-421e-8c67-b8e80280dbcb" x="572.4" y="616.3" width="69.2" height="90.13" transform="translate(-56.3 1266.3) rotate(-89.8)"/></g></g></g></g></g></g></svg>